<svg version="1.2" xmlns="http://www.w3.org/2000/svg" viewBox="0 0 2532 1590" width="2532" height="1590">
	<title>Muslim_people_read_quran_1-ai</title>
	<style>
		.s0 { fill: #b4cceb } 
		.s1 { fill: #869cad } 
		.s2 { fill: #a3bad3 } 
		.s3 { fill: #94aabf } 
		.s4 { fill: #d7e2f1 } 
		.s5 { fill: #cad2db } 
		.s6 { fill: #453e77 } 
		.s7 { fill: #ffffff } 
		.s8 { fill: #f2bb97 } 
		.s9 { fill: #f5a28c } 
		.s10 { fill: #4d1c16 } 
		.s11 { fill: #332b60 } 
		.s12 { fill: #eda994 } 
		.s13 { fill: #b6c2db } 
		.s14 { fill: #eca387 } 
		.s15 { fill: #f8ca77 } 
		.s16 { fill: #c9a269 } 
		.s17 { fill: #bf4f2f } 
		.s18 { fill: #ddc5af } 
		.s19 { fill: #f4e0ce } 
		.s20 { fill: #e2b771 } 
		.s21 { fill: #cebfb2 } 
		.s22 { fill: #fcb821 } 
		.s23 { opacity: .3;mix-blend-mode: multiply;fill: #7c4b7f } 
		.s24 { fill: #7c4b7f } 
		.s25 { fill: #e96d70 } 
		.s26 { opacity: .1;mix-blend-mode: multiply;fill: #000000 } 
		.s27 { opacity: .3;mix-blend-mode: multiply;fill: #ea3d71 } 
		.s28 { opacity: .3;mix-blend-mode: multiply;fill: #622272 } 
		.s29 { fill: #cccccc } 
		.s30 { fill: #c7d7e5 } 
	</style>
	<g id="_Artboards_">
	</g>
	<g id="Layer 1">
		<g id="&lt;Group&gt;">
			<g id="&lt;Group&gt;">
				<path id="&lt;Path&gt;" class="s0" d="m652.6 636.9c-120.3 101.8-278.9 112.2-354.1 23.3-75.3-89-38.8-243.6 81.5-345.4 120.3-101.8 278.8-112.2 354.1-23.3 75.3 89 38.8 243.6-81.5 345.4z"/>
				<g id="&lt;Group&gt;">
					<path id="&lt;Path&gt;" class="s0" d="m2420 1506.5h-2314c-38.8 0-70.4-32-69.1-70.8 4.9-141.7 26.7-280.2 91.3-397.4 168.3-305.3 406-200.2 559.5-327.3 212.5-175.9 140.6-430.7 575.8-432.2 653.1-2.2 1187.2 509.9 1225.5 1153.6 2.4 40.1-28.8 74.1-69 74.1z"/>
				</g>
				<g id="&lt;Group&gt;">
					<g id="&lt;Group&gt;">
						<path id="&lt;Path&gt;" class="s1" d="m1855.8 1326c-53 12.4-111.5-72.4-105.8-126.3 5.7-53.9-14.3-76.9-52.4-93.3-38-16.3-45.9-32.7-39.9-70.5 5.9-37.8 4.5-118.3-0.5-135.2-4.9-16.8 1.5-39.4 27.6-19.2 26.2 20.1 130.1 67.7 164.9 93 34.7 25.3 21 56.5 14 100.8-6.9 44.2 11.1 42 36.5 96.4 25.5 54.4-7.7 152-44.4 154.3z"/>
					</g>
					<g id="&lt;Group&gt;">
						<path id="&lt;Path&gt;" class="s2" d="m2130.2 1369.9c30.2-35.9 53.9-43.5 88.2-31.4 34.3 12.3 48.6 7.9 72.9-14.4 23-23.6 91-54.8 109.7-55.7 17.6-2.1 35.8-16.3 0.3-25.9-62.7-16.9-126.6-62.2-178.1-68.5-49.7-7.7-84.5 17.8-107.6 50.4-22.2 33.7-36.6 21.3-88.3 49.3-53.2 28.7-65.8 115.3-36.6 132.4 0 0 70 46.5 139.5-36.2z"/>
					</g>
					<g id="&lt;Group&gt;">
						<path id="&lt;Path&gt;" class="s3" d="m1935.4 1486c0.8 0 1.6-0.5 1.8-1.4 0.1-0.6 14.2-60.1 74.5-118.4 55-53.3 160.8-116.3 352.9-116.3q3.5 0 7.1 0.1c1.1 0.2 1.9-0.8 1.9-1.9 0-1-0.8-1.8-1.8-1.8q-3.6-0.1-7.2-0.1c-193.5 0-300.1 63.7-355.7 117.5-61 59.1-75.2 119.5-75.3 120.1-0.3 1 0.4 2 1.4 2.2q0.2 0 0.4 0z"/>
					</g>
					<g id="&lt;Group&gt;">
						<path id="&lt;Path&gt;" class="s3" d="m1847.4 1489c0.8 0 1.6-0.6 1.8-1.4 0.2-0.8 17-73.5 5.9-180.2-10.2-98.4-46.9-246.6-163.6-394.1-0.6-0.8-1.8-1-2.6-0.3-0.8 0.6-1 1.8-0.3 2.6 222.1 280.8 157.7 568.2 157 571.1-0.3 1 0.4 2 1.4 2.3q0.2 0 0.4 0z"/>
					</g>
					<g id="&lt;Group&gt;">
						<path id="&lt;Path&gt;" class="s2" d="m1839.4 1345.6c29.9-19.4 21.9-115.1-17.5-154.3-42.1-41.9-58.1-33.7-66.6-77.1-8.6-43.5-6.5-77.1-47.3-88.8-40.9-11.6-153.6-20.4-184.7-30.3-31-9.8-29.3 13.4-19 27.3 10.3 14 39 88.2 46.4 125.3 7.3 37.1 20.1 49.6 61 51.9 40.8 2.2 67.2 16.8 80.3 68.7 13.1 52 99.3 108.6 147.4 77.3z"/>
					</g>
					<g id="&lt;Group&gt;">
						<path id="&lt;Path&gt;" class="s3" d="m1866.2 1484c1 0 1.8-0.8 1.9-1.8 0-1.4 5.1-141.5-103-262.9-113.7-127.5-220.5-193.9-221.5-194.5-0.9-0.5-2-0.3-2.6 0.6-0.5 0.9-0.2 2 0.6 2.5 1.1 0.7 107.4 66.8 220.7 193.9 107.2 120.2 102.1 258.9 102.1 260.3-0.1 1 0.7 1.8 1.7 1.9q0.1 0 0.1 0z"/>
					</g>
					<g id="&lt;Group&gt;">
						<path id="&lt;Path&gt;" class="s4" d="m1901.6 1306.4c55.2 22.5 132.9-59.3 136-118.6 3-59.2 28.6-80.7 72.5-91.9 44-11.3 55.2-27.6 55.2-69.5 0-41.9 15.3-128.8 23.5-146.2 8.2-17.3 5.1-42.9-26.6-25.5-31.6 17.3-152.2 51.1-194.1 72.5-41.9 21.5-32.4 57.6-32.4 106.7 0 49-19.1 43.6-55.9 98.1-36.7 54.5-17.5 165.7 21.8 174.4z"/>
					</g>
					<g id="&lt;Group&gt;">
						<path id="&lt;Path&gt;" class="s2" d="m1883.2 1484.2q0.1 0 0.2 0c1.1-0.1 2-1.1 1.9-2.2-0.3-3.2-21.1-325.1 267.1-591.1 0.8-0.7 0.9-2 0.1-2.9-0.8-0.8-2.1-0.8-2.9-0.1-151.3 139.7-216.2 293.8-244.1 398.5-30.1 113.5-24.4 195.1-24.3 195.9 0.1 1.1 1 1.9 2 1.9z"/>
					</g>
				</g>
				<g id="&lt;Group&gt;">
					<path id="&lt;Path&gt;" class="s4" d="m2080.5 1506.5h-1417.4c-11.8 0-21.3-9.5-21.3-21.2 0-11.7 9.5-21.3 21.3-21.3h1417.4c11.7 0 21.2 9.6 21.2 21.3 0 11.7-9.5 21.2-21.2 21.2z"/>
				</g>
				<g id="&lt;Group&gt;">
					<g id="&lt;Group&gt;">
						<path id="&lt;Path&gt;" class="s5" d="m1729.2 1254.5l3.3 38.4-221.9 139.6-176.9 31.8-103.3-53.8-123.1-133 15.4-42.8 403.3 8.8 152.7-11z"/>
					</g>
					<g id="&lt;Group&gt;">
						<path id="&lt;Path&gt;" class="s6" d="m1529.6 699.4c0 0 0-8.3-33.7-9.3-33.7-1.1-143.1 20.9-143 45 0.2 24.2 35 71.8 35 71.8l13.2 13.5c0 0 12 5.2 14.2 5.2 2.2 0 37.8-13.6 41.8-20.5 4-7 24.2-31.2 26-32.3 1.8-1.1 39.9-40.3 39.9-42.8 0-2.6 6.6-30.6 6.6-30.6z"/>
					</g>
					<g id="&lt;Group&gt;">
						<path id="&lt;Path&gt;" class="s7" d="m1060.7 1207.2c2.2-17.6-3.7-27.8-10.3-43.2 38.1-11 104.8-10.3 104.8-10.3 41-293 188.1-377.8 188.1-377.8l1.2-1 9-39.8c12.6 19 34.2 31.8 40.5 40.7 3.6 8.8 11.1 30.2 17.1 40.1 1.8 3 6.2 2.5 7.7-0.7 4.9-10.5 9.1-26.4 11.7-40.7 0.4-1.7 1.6-3.2 3.2-3.9 76.8-34.4 96.5-71.2 96.5-71.2l15.4 61.9c0 0 208.9 70.5 258.6 430.5 4.4 33.7 1.5 71.8-83.5 71.8l-142.8-1.4c0 0-142 118.2-294.6 76.2-134.5-37-222.6-131.2-222.6-131.2z"/>
					</g>
					<g id="&lt;Group&gt;">
						<path id="&lt;Path&gt;" class="s4" d="m1415.3 825.6c0 0-1.8 21.7-4.5 54.2-1.3 16.2-2.8 35.1-4.5 55.4-1.5 20.3-3.5 41.9-4.8 63.5-1.4 21.6-2.9 43.3-4.3 63.5-1.1 20.3-2.7 39.3-3.3 55.5-0.8 16.3-1.6 29.9-2.1 39.4-0.6 9.5-1 15-1 15 0 0-0.6-5.5-1.6-15-0.7-9.5-2.3-23.1-2.7-39.4-0.6-16.4-1.2-35.5-0.9-55.9 0.2-20.5 1.3-42.3 2.8-64 1.6-21.8 3.8-43.5 6.4-63.8 2.5-20.3 5.9-39.1 8.7-55.2 5.9-32.2 11.8-53.2 11.8-53.2z"/>
					</g>
					<g id="&lt;Group&gt;">
						<path id="&lt;Path&gt;" class="s8" d="m1284.6 605c0 0 13.7 73.5 42.9 112.6 37.7 50.4 95.2 66 139.2 28.4 44-37.6 44.9-72.6 44.9-72.6 0 0 42-11.2 44.3-47.1 2.2-35.9-23.1-47.6-37.4-36.1 0 0-44.9-55.3-101.9-63.1-40.7-5.6-111.2 15.4-130.5 42.4-6.3 8.9-1.5 35.5-1.5 35.5z"/>
					</g>
					<g id="&lt;Group&gt;" style="opacity: .2;mix-blend-mode: multiply">
						<path id="&lt;Path&gt;" class="s9" d="m1518.5 590.2c0 0-31.5-38.6-75-55.8 11.3 24.7 45.2 91.7 45.2 142.3 0 42.9-24.6 66.9-54 86.8 11.1-3.2 21.9-8.9 32-17.5 44-37.6 44.9-72.6 44.9-72.6 0 0 42-11.2 44.3-47.1 2.2-35.9-23.1-47.6-37.4-36.1z"/>
					</g>
					<g id="&lt;Group&gt;">
						<path id="&lt;Path&gt;" class="s10" d="m1546.9 595l2.2-17.6c0 0-36.4-21.7-79.8-32.5 14.3 18.3 28.3 48.1 33.8 75 6.7 32.5 9.7 33.2 12.6-0.9 2.9-34 22.8-30.7 31.2-24z"/>
					</g>
					<g id="&lt;Group&gt;">
						<path id="&lt;Path&gt;" class="s6" d="m1381 1402.8c-114.3-46.9-272.9-109.5-318.3-108-45.4 1.4-102.5 16.1-127.4 68.8-25 52.8 35.1 115.8 65.9 134.8 30.8 19.1 290.1 22 342.8 23.4 0 0 54.9-9.1 61.2-46.5 5.5-32.6-24.2-72.5-24.2-72.5z"/>
					</g>
					<g id="&lt;Group&gt;">
						<path id="&lt;Path&gt;" class="s11" d="m1402.1 1485.1c-44-5.4-225.2-31.8-467.2-120.5-23.7 52.6 35.7 114.9 66.3 133.8 30.8 19.1 290.1 22 342.8 23.4 0 0 44.9-7.5 58.1-36.7z"/>
					</g>
					<g id="&lt;Group&gt;">
						<path id="&lt;Path&gt;" class="s11" d="m1765.1 1294.8c11.1 0.3 23 1.5 34.8 3.8-11.6-7.3-50.2-29-93-24.7-49.5 4.9-142.7 53.7-203.2 105.8 104.7-42 223.2-86.2 261.4-84.9z"/>
					</g>
					<g id="&lt;Group&gt;">
						<path id="&lt;Path&gt;" class="s4" d="m1162.2 1276.4l34.1-1.1c-1.3-25.6 80.6-45.4 80.6-45.4 0 0-74.7 12.5-81.6-37 5.8-205.7 70.8-338.5 74.3-345.3-43.3 57-93.6 153.1-115 306.1 0 0-66.7-0.7-104.8 10.3 6.6 15.4 12.5 25.6 10.3 43.2z"/>
					</g>
					<g id="&lt;Group&gt;">
						<path id="&lt;Path&gt;" class="s12" d="m1060.1 1207.2c2.2-17.6-3.7-27.8-10.3-43.2 0 0-82 4.4-108.4 50.5-23.1 40.4 93.4 5.1 123-4.4z"/>
					</g>
					<g id="&lt;Group&gt;">
						<g id="&lt;Group&gt;">
							<path id="&lt;Path&gt;" class="s13" d="m1566.4 1174.8c-1 0.3-0.8 0.3 0 0z"/>
							<path id="&lt;Path&gt;" class="s13" d="m1566.4 1174.8c0 0 0.1 0 0.2-0.1q-0.1 0.1-0.2 0.1z"/>
							<g id="&lt;Group&gt;">
								<path id="&lt;Path&gt;" class="s4" d="m1630.3 969l-29.6-32.1c0 0 17.6 77.1-16.5 107.7-42.9 38.5-52.8 57.1-9.7 76.9 24.8 11.4 28.7 41.5 2.7 49.8 43.2-1.4 97.5-2.9 97.5-2.9 0 0-29-99.2-44.4-199.4z"/>
							</g>
							<path id="&lt;Path&gt;" class="s13" d="m1566.6 1174.7c1.2-0.4 3.6-1.1 5.9-1.8-3.1 0.9-5 1.5-5.9 1.8z"/>
							<path id="&lt;Path&gt;" class="s13" d="m1572.5 1172.9c1.3-0.5 2.9-1 4.7-1.6 0 0-2.2 0.8-4.7 1.6z"/>
						</g>
					</g>
					<g id="&lt;Group&gt;">
						<path id="&lt;Path&gt;" class="s14" d="m1371.4 1424.8l87.2-8.8 24.1 63-104 8.8z"/>
					</g>
					<g id="&lt;Group&gt;">
						<path id="&lt;Path&gt;" class="s6" d="m1446.8 1402.8c114.3-46.9 272.9-109.5 318.3-108 45.4 1.4 102.6 16.1 127.5 68.8 24.9 52.8-35.2 115.8-65.9 134.8-30.8 19.1-290.1 22-342.9 23.4 0 0-54.8-9.1-61.1-46.5-5.5-32.6 24.1-72.5 24.1-72.5z"/>
					</g>
					<g id="&lt;Group&gt;">
						<path id="&lt;Path&gt;" class="s11" d="m1893.9 1367.3c-47.9 15.4-233.4 72.3-471.3 106.5 0.1 0.5 0 1 0.1 1.5 6.3 37.4 61.1 46.5 61.1 46.5 52.8-1.4 312.1-4.3 342.9-23.4 30-18.6 87.8-79.2 67.2-131.1z"/>
					</g>
					<g id="&lt;Group&gt;">
						<g id="&lt;Group&gt;">
							<path id="&lt;Path&gt;" class="s15" d="m873.4 1226.2l223.7 135.5 34.8-21.1-201.1-116.8h-65.7l0.1 0.3c2.8 0 5.6 0.5 8.2 2.1z"/>
						</g>
						<g id="&lt;Group&gt;">
							<path id="&lt;Path&gt;" class="s16" d="m1097.1 1399.4l-223.7 135.5c-2.5 1.5-5.2 2-7.9 2.1l-0.4 0.2h195.5l128.2-82.3z"/>
						</g>
						<g id="&lt;Group&gt;">
							<path id="&lt;Path&gt;" class="s15" d="m1515.5 1507.3l-205.1-126.8h-182.1l209.3 126.8c7.6 4.6 10 14.5 5.4 22.2-3 5-8.4 7.5-13.9 7.5l0.4 0.2h169.3c5.3 0 17.6-0.1 22.2-7.7 4.6-7.7 2.2-17.6-5.5-22.2z"/>
						</g>
						<g id="&lt;Group&gt;">
							<path id="&lt;Path&gt;" class="s16" d="m1343 1529.5c-3 5-8.4 7.5-13.9 7.5l0.4 0.2h169.3c5.3 0 17.6-0.1 22.2-7.7 4.6-7.7 2.2-17.6-5.5-22.2h-177.9c7.6 4.6 10 14.5 5.4 22.2z"/>
						</g>
						<g id="&lt;Group&gt;">
							<path id="&lt;Path&gt;" class="s17" d="m1109.5 1359.5c0 0-189-114.3-210.7-127.2-3.3-2-3.4-4 1.2-4 4.6 0 14.6 0 14.6 0l205.6 124.7z"/>
						</g>
						<g id="&lt;Group&gt;">
							<path id="&lt;Path&gt;" class="s18" d="m1506.6 1227.1c0 0-13.3-12.6-27.6-20.5-16.2 0-146.8 0-159.4 0-2.9 0-8.1 0.1-15.9 1.5-28.2 8.2-96 38-175.4 112.5 0 0-85.6-90.6-194.2-114l-28.2 23.9 204.6 123.1 200.2-121.3z"/>
						</g>
						<g id="&lt;Group&gt;">
							<path id="&lt;Path&gt;" class="s19" d="m1479 1206.6c-16.2 0-146.8 0-159.4 0-2.8 0-8.2 0.2-15.9 1.5 18.6 10.5 24.5 23.8 24.5 23.8l178.4-4.8c0 0-11.8-13.8-27.6-20.5z"/>
						</g>
						<g id="&lt;Group&gt;">
							<path id="&lt;Path&gt;" class="s16" d="m1533.2 1231.6c-4.6-7.6-15-7.2-22.1-7.2h-177.7c3.9 1.1 7.4 3.5 9.6 7.2 4.6 7.6 2.2 17.6-5.4 22.2l-209.3 126.7h182.1l217.4-126.7c7.6-4.6 10-14.6 5.4-22.2z"/>
						</g>
						<g id="&lt;Group&gt;">
							<path id="&lt;Path&gt;" class="s20" d="m1337.6 1507.3l-209.3-126.8 209.3-126.7c7.6-4.6 10-14.6 5.4-22.2-4.6-7.6-14.5-10-22.1-5.4l-223.8 135.5-223.7-135.5c-7.6-4.6-17.6-2.2-22.2 5.4-4.6 7.6-2.2 17.6 5.5 22.2l209.3 126.7-209.3 126.8c-7.7 4.6-10.1 14.5-5.5 22.2 4.6 7.6 14.6 10 22.2 5.4l223.7-135.5 223.8 135.5c7.6 4.6 17.5 2.2 22.1-5.4 4.6-7.7 2.2-17.6-5.4-22.2z"/>
						</g>
						<g id="&lt;Group&gt;">
							<path id="&lt;Path&gt;" class="s15" d="m1533.2 1231.6c-4.6-7.6-15-7.2-22.1-7.2h-177.7c3.9 1.1 7.4 3.5 9.6 7.2 4.6 7.6 2.2 17.6-5.4 22.2h190.2c7.6-4.6 10-14.6 5.4-22.2z"/>
						</g>
						<g id="&lt;Group&gt;">
							<path id="&lt;Path&gt;" class="s19" d="m1128.3 1320.6c32.6-30.8 61.3-51.3 85.2-67.7-5.3-4.2-38-30.5-73.3-42.6-104.6-13.4-206.1-3.7-206.1-3.7 109.5 30.6 194.2 114 194.2 114z"/>
						</g>
						<path id="&lt;Path&gt;" class="s21" d="m1127 1312.1l5.3 4.9q1.3-1.3 2.6-2.5l-5.4-5.1c-16.3-15-74-65.2-150-96.5 13.4-0.5 27-0.7 40.4-0.7 42.3 0 82.1 2.3 118.1 6.8 25.3 8.8 49 24.7 60.8 33.4l7.2 5.6c1.1-0.7 2.1-1.5 3.1-2.1l-8.1-6.4c-12-8.8-36.1-24.9-62.2-33.9-36.4-4.7-76.4-7-118.9-7-16.3 0-32.7 0.3-48.9 1l-8.5 0.4 7.9 3.1c79.3 30.8 139.9 83.5 156.6 99z"/>
					</g>
					<g id="&lt;Group&gt;">
						<path id="&lt;Path&gt;" class="s12" d="m1375.9 1190.7c-0.8-9.7 7.9-13.6 22.7-14l25.1-8.5c7-2.9 21.7 6.4 22.5 16.1 0.8 9.7-6 18.1-15.3 18.9l-36.7 3.6c-9.3 0.8-17.5-6.4-18.3-16.1z"/>
					</g>
					<g id="&lt;Group&gt;">
						<path id="&lt;Path&gt;" class="s12" d="m987.7 1218.5c-4.5-6.8-2.1-16.3 5.4-21.3l29.6-20c7.5-5 17.3-3.6 21.8 3.2 4.4 6.7 2 16.3-5.5 21.3l-29.6 20c-7.5 5-17.3 3.5-21.7-3.2z"/>
					</g>
					<g id="&lt;Group&gt;">
						<path id="&lt;Path&gt;" class="s8" d="m1524.9 1250.8l60.8 3.3c0 0 20.1-35.5 16.4-49.4-3.6-14-21.6-24.9-21.6-24.9l-102.9-0.4-12.8 47.6 45 26.7z"/>
					</g>
					<g id="&lt;Group&gt;">
						<path id="&lt;Path&gt;" class="s7" d="m1625.7 812.7c-82.9 78.8 38 352 38 352 0 0-34.5 0-86.5 6.6 23.5 29.3 8.5 82.8 8.5 82.8-1.3 3.5-2.4 6.1-3.3 8.1l137.7 1.4c84.9 0 87.9-38.1 83.5-71.8-29.2-211.5-113.4-323-177.9-379.1z"/>
					</g>
					<g id="&lt;Group&gt;">
						<path id="&lt;Path&gt;" class="s8" d="m1528.2 1184.9c-7.3-5.6-19.8-15.4-47.7-22.7-16.7-4.4-36.3-2.5-44.8-1.4-8.6 1.1-16.1 3.2-19.6 13.5l-20 58.9c-3.5 10.2-6.4 27.2 2 30.1 8.1 2.7 18.7-3.7 28.2-28.6-0.3 8.3-6.9 29.7 6.3 36.6 16.9 9 23.8-20.3 27.4-31.1l-1.8 15.7c-2.2 9.5 0.2 17.9 8.1 20.5 8.4 2.9 18.1-8.8 21.6-19l6.6-17.2c-2.2 12.1-8.8 35-0.8 37.7 8.1 2.7 20.8-12.8 23.8-21.6l15-40.3c3-8.8 2.4-25.9-4.3-31.1z"/>
					</g>
					<g id="&lt;Group&gt;">
						<path id="&lt;Path&gt;" class="s4" d="m1347.4 777.6c0 0 13.1 10.7 26.7 20 6.8 4.9 13.9 9.1 19.2 12.4 5.4 3.3 9 5.5 9 5.5 0 0-4.1-0.9-10.1-3.3-5.9-2.2-13.5-6.2-20.6-11-6.9-4.9-13.4-10.5-17.6-15.3-4.3-4.7-6.6-8.3-6.6-8.3z"/>
					</g>
					<g id="&lt;Group&gt;">
						<path id="&lt;Path&gt;" class="s4" d="m1544.1 763.9c0 0-5.8 5.3-15.3 12.1-9.5 6.9-22.9 15-36.9 21.9-7.1 3.4-14.3 6.4-21.2 9-6.8 2.7-13.4 4.6-19.1 6.1-5.6 1.7-10.4 2.5-13.8 3.1-3.3 0.7-5.2 1-5.2 1 0 0 29.7-9.4 57.3-23.1 27.9-13.4 54.2-30.1 54.2-30.1z"/>
					</g>
					<g id="&lt;Group&gt;">
						<path id="&lt;Path&gt;" class="s4" d="m1663.7 1164.7c0 0 5.7-0.3 14.4 0.6 8.6 0.8 20 2.7 31.2 5.7 11.1 3.4 21.8 7.8 29.5 11.8 3.9 1.9 6.9 3.9 9.1 5.3 2.1 1.3 3.3 2.1 3.3 2.1 0 0-5.1-2.7-13-6.1-7.8-3.6-18.5-7.7-29.6-10.6-21.9-6.7-44.9-8.8-44.9-8.8z"/>
					</g>
					<g id="&lt;Group&gt;" style="opacity: .2;mix-blend-mode: multiply">
						<g id="&lt;Group&gt;">
							<path id="&lt;Compound Path&gt;" fill-rule="evenodd" class="s6" d="m1282.9 584.7c0-2.1 0.1-4.1 0.4-6.1-0.2 0.2-0.4 0.4-0.6 0.6 0 0-0.1-0.3-0.2-0.7 0-0.2 0-0.3-0.1-0.5q-0.2-0.9-0.6-2.3c0-0.2 0-0.3-0.1-0.5-0.6-2.4-1.3-5.8-2-10q0-0.3-0.1-0.6-0.5-3.2-1-6.9 0 0 0 0c-0.6-5-1.1-10.7-1.3-16.7q0-0.6 0-1.3c-0.3-13.7 1.3-29.4 6.7-44.3 30.3-63.5 111.9-85.3 177.4-65.9 37.3 11.1 62.9 34 78.4 60.4 2.5 5 4.7 10.1 6.5 15.3q0.1 0.4 0.2 0.8c4 11.6 6.2 23.5 6.8 34.9q0 0 0 0c0.6 10.9-0.2 21.3-2.4 30.9-0.5 2.1-0.9 4.3-1.5 6.3 0 0-0.2-0.1-0.3-0.2l-0.9 7c-31.5-14.1-191.9-80.2-265.3-0.2zm189.8-34.9q0.1 0 0.1 0 0 0 0 0 0 0-0.1 0z"/>
						</g>
					</g>
					<g id="&lt;Group&gt;">
						<g id="&lt;Group&gt;">
							<path id="&lt;Path&gt;" class="s6" d="m1549.3 578.1c0 0-189.9-93.9-266.6 1.1 0 0-13.9-47.6 2.5-87.4 27.3-66.3 109.1-89.1 174.3-69.4 80.3 24.3 105.2 105.3 89.8 155.7z"/>
						</g>
						<g id="&lt;Group&gt;" style="opacity: .2;mix-blend-mode: screen">
							<path id="&lt;Path&gt;" class="s6" d="m1459.5 422.4c-45.8-13.9-99.7-6.6-137.3 21.8-1 7.3 0 14 6 17.3 15.5 8.5 168-45.9 225.1 79.4-2.5-46.4-31.3-99.6-93.8-118.5z"/>
						</g>
						<g id="&lt;Group&gt;" style="opacity: .2;mix-blend-mode: multiply">
							<path id="&lt;Path&gt;" class="s6" d="m1549.4 578.1c0.6-2 1-4.2 1.5-6.3-25.2-14.3-58.3-29.9-98.2-41.4-96.7-27.9-139.9 8.7-158.2 13.1-10.4 2.5-15-5.5-17.2-12.9-1 26.6 5.4 48.6 5.4 48.6 76.7-95 266.7-1.1 266.7-1.1z"/>
						</g>
					</g>
				</g>
				<path id="&lt;Path&gt;" class="s22" d="m1062.3 400.5c-43.3 0-78.7-35.2-78.7-78.7 0-19.6 7.2-37.3 18.8-51-43.4 8.5-76.2 46.8-76.2 92.8 0 51.9 42.3 94.5 94.5 94.5 46 0 84.2-32.9 92.7-76.5-13.7 11.7-31.5 18.9-51.1 18.9z"/>
				<g id="&lt;Group&gt;">
					<g id="&lt;Group&gt;">
						<path id="&lt;Compound Path&gt;" fill-rule="evenodd" class="s4" d="m1725.3 759.9c-0.8 0-1.6-0.2-2.4-0.8-1.2-0.9-1.8-2.5-1.6-4l3.3-17.6-13-12.2c-1.1-1.1-1.5-2.7-1-4.3 0.4-1.4 1.7-2.5 3.3-2.7l17.7-2.4 7.7-16.1c1.3-2.7 5.9-2.7 7.2 0l7.8 16.1 17.7 2.4c1.6 0.2 2.8 1.3 3.3 2.7 0.5 1.6 0.1 3.2-1 4.3l-13 12.2 3.2 17.6c0.3 1.5-0.3 3.1-1.6 4-1.2 0.9-2.9 1-4.2 0.2l-15.7-8.4-15.8 8.4c-0.6 0.4-1.3 0.6-1.9 0.6zm17.7-17.7c0.6 0 1.3 0.3 1.8 0.6l10.3 5.6-2.1-11.6c-0.2-1.3 0.3-2.7 1.2-3.5l8.5-8.2-11.7-1.5c-1.3-0.1-2.4-0.9-3-2.2l-5-10.5-5.1 10.5c-0.6 1.3-1.7 2.1-3 2.2l-11.6 1.5 8.4 8.2c1 0.8 1.5 2.2 1.2 3.5l-2.2 11.6 10.3-5.6c0.6-0.3 1.3-0.6 2-0.6z"/>
					</g>
				</g>
				<g id="&lt;Group&gt;">
					<g id="&lt;Group&gt;">
						<path id="&lt;Compound Path&gt;" fill-rule="evenodd" class="s4" d="m2275.1 1089.4c-0.8 0-1.5-0.3-2.2-0.8-1.1-0.7-1.7-2.2-1.4-3.6l2.9-15.7-11.7-10.9c-0.9-1-1.3-2.4-0.8-3.8 0.4-1.3 1.5-2.2 2.9-2.5l15.8-2 6.9-14.5c1.2-2.4 5.3-2.4 6.5 0l6.9 14.5 15.9 2c1.4 0.3 2.5 1.2 2.9 2.5 0.5 1.4 0.1 2.8-0.9 3.8l-11.5 10.9 2.8 15.7c0.2 1.4-0.3 2.9-1.4 3.6-1.2 0.8-2.6 0.9-3.8 0.2l-14.1-7.5-14.1 7.5c-0.5 0.4-1.1 0.6-1.6 0.6zm15.7-15.8c0.6 0 1.2 0.2 1.7 0.5l9.1 4.9-1.8-10.3c-0.2-1.2 0.2-2.4 1.1-3.2l7.5-7.3-10.4-1.3c-1.1-0.1-2.1-0.8-2.7-2l-4.5-9.4-4.5 9.4c-0.5 1.2-1.5 1.9-2.7 2l-10.4 1.3 7.6 7.3c0.8 0.8 1.3 2 1.1 3.2l-2 10.3 9.2-4.9c0.5-0.3 1.1-0.5 1.7-0.5z"/>
					</g>
				</g>
				<g id="&lt;Group&gt;">
					<g id="&lt;Group&gt;">
						<path id="&lt;Path&gt;" class="s6" d="m521.5 1231c51.6 0 223.4 0 223.4 0 9 0 16.3-6.6 16.3-14.8 0-8.1-7.3-14.8-16.3-14.8 0 0-172.2 0-223.7 0-4.9 0-4.2-10.1-0.3-10.1v-265.7h225.6c13.8 0 24.9 11.2 24.9 24.9v265.7c0 13.8-11.1 24.9-24.9 24.9h-225.6c-3.9 0-5.1-10.1 0.6-10.1z"/>
					</g>
					<g id="&lt;Group&gt;">
						<path id="&lt;Path&gt;" class="s7" d="m525.7 1231v-29.6c56.3 0 219.2 0 219.2 0 9 0 16.3 6.7 16.3 14.8 0 8.2-7.3 14.8-16.3 14.8 0 0-163.2 0-219.2 0z"/>
					</g>
					<g id="&lt;Group&gt;">
						<path id="&lt;Path&gt;" class="s2" d="m758.7 1221c0-8.2-7.3-14.8-16.3-14.8 0 0-158.2 0-216.7 0v-4.8c56.3 0 219.2 0 219.2 0 9 0 16.3 6.7 16.3 14.8 0 3.3-1.2 6.3-3.2 8.7 0.4-1.2 0.7-2.5 0.7-3.9z"/>
					</g>
					<g id="&lt;Group&gt;">
						<path id="&lt;Path&gt;" class="s15" d="m643.3 1118.8c0-4.5-1.7-8.6-4.9-11.6-1.5-1.1-2.2-2.9-1.8-4.6 0.6-1.8 1.8-3.3 3.5-3.8 15-5.4 25.4-19.8 25.4-35.8 0-15.9-10.4-30.3-25.4-35.6-1.7-0.6-2.9-2.1-3.5-3.5-0.4-2.1 0.3-3.6 1.8-5 3.2-3 4.9-7.1 4.9-11.5 0-5.7-8.2-16.5-15.9-24.5-7.3 8-15.6 18.8-15.6 24.5 0 4.4 1.8 8.5 5 11.5 1.2 1.4 1.7 2.9 1.5 5-0.3 1.4-1.8 2.9-3.2 3.5-15.4 5.3-25.7 19.7-25.7 35.6 0 16 10.3 30.4 25.7 35.8 1.4 0.5 2.9 2 3.2 3.8 0.2 1.7-0.3 3.5-1.5 4.6-3.2 3-5 7.1-5 11.6 0 5.6 8.3 16.5 15.6 24.4 7.7-7.9 15.9-18.8 15.9-24.4z"/>
					</g>
					<g id="&lt;Group&gt;" style="opacity: .4;mix-blend-mode: screen">
						<g id="&lt;Group&gt;">
							<path id="&lt;Compound Path&gt;" fill-rule="evenodd" class="s6" d="m694 980.5v165.4c-13.8 2-24.7 12.9-26.8 26.8h-79.3c-2.3-13.9-13.2-24.8-27.1-26.8v-165.4c13.9-2.3 24.8-13.2 27.1-27.1h79.3c2.1 13.9 13 24.8 26.8 27.1zm-44.1 125c15.6-8.2 25.6-24.5 25.6-42.5 0-17.9-10-34.1-25.6-42.3 2.3-3.9 3.5-8.6 3.5-13.3 0-13-18.6-31.6-22.4-35.1-2.1-2.1-5-2.1-7.1 0-3.5 3.5-22.4 22.1-22.4 35.1 0 4.7 1.4 9.4 3.8 13.3-15.6 8.2-25.9 24.4-25.9 42.3 0 18 10.3 34.3 25.9 42.5-2.4 3.8-3.8 8.5-3.8 13.3 0 12.9 18.9 31.5 22.4 35.4 1.2 0.8 2.4 1.1 3.5 1.1 1.2 0 2.7-0.3 3.6-1.1 3.8-3.9 22.4-22.5 22.4-35.4 0-4.8-1.2-9.5-3.5-13.3z"/>
						</g>
					</g>
					<g id="&lt;Group&gt;">
						<g id="&lt;Group&gt;">
							<g id="&lt;Group&gt;" style="opacity: .5;mix-blend-mode: multiply">
								<path id="&lt;Path&gt;" class="s2" d="m535.2 1217.9c0 2 4.4 3.6 9.8 3.6h191.8c5.4 0 9.8-1.6 9.8-3.6 0-2-4.4-3.5-9.8-3.5h-191.8c-5.4 0-9.8 1.5-9.8 3.5z"/>
							</g>
						</g>
					</g>
					<g id="&lt;Group&gt;">
						<path id="&lt;Path&gt;" class="s23" d="m740.1 925.6h6.4c13.8 0 24.9 11.2 24.9 24.9v265.7c0-13.7-11.1-24.9-24.9-24.9h-6.4z"/>
						<g id="&lt;Group&gt;" style="opacity: .3;mix-blend-mode: screen">
							<path id="&lt;Path&gt;" class="s24" d="m740.2 925.6v265.7h-6.1v-265.7z"/>
						</g>
					</g>
				</g>
				<g id="&lt;Group&gt;">
					<g id="&lt;Group&gt;">
						<path id="&lt;Path&gt;" class="s25" d="m1978.8 396c1.2-4.4 1.8-8.9 1.8-13.7 0-28.8-23.4-52.2-52.2-52.2-29 0-52.3 23.4-52.3 52.2 0 4.8 0.7 9.3 1.9 13.7z"/>
					</g>
					<g id="&lt;Group&gt;">
						<g id="&lt;Group&gt;">
							<path id="&lt;Path&gt;" class="s6" d="m1934.3 319.6c0 3.2-2.7 5.9-5.9 5.9-3.3 0-5.9-2.7-5.9-5.9 0-3.2 2.6-5.8 5.9-5.8 3.2 0 5.9 2.6 5.9 5.8z"/>
						</g>
						<g id="&lt;Group&gt;">
							<path id="&lt;Path&gt;" class="s6" d="m1934.3 304.8c0 3.2-2.7 5.8-5.9 5.8-3.3 0-5.9-2.6-5.9-5.8 0-3.3 2.6-5.9 5.9-5.9 3.2 0 5.9 2.6 5.9 5.9z"/>
						</g>
						<g id="&lt;Group&gt;">
							<path id="&lt;Path&gt;" class="s6" d="m1934.3 289.8c0 3.2-2.7 5.9-5.9 5.9-3.3 0-5.9-2.7-5.9-5.9 0-3.2 2.6-5.8 5.9-5.8 3.2 0 5.9 2.6 5.9 5.8z"/>
						</g>
					</g>
					<g id="&lt;Group&gt;">
						<g id="&lt;Group&gt;">
							<path id="&lt;Path&gt;" class="s6" d="m1934.3 275.3c0 3.3-2.7 5.9-5.9 5.9-3.3 0-5.9-2.6-5.9-5.9 0-3.2 2.6-5.8 5.9-5.8 3.2 0 5.9 2.6 5.9 5.8z"/>
						</g>
						<g id="&lt;Group&gt;">
							<path id="&lt;Path&gt;" class="s6" d="m1934.3 260.5c0 3.2-2.7 5.8-5.9 5.8-3.3 0-5.9-2.6-5.9-5.8 0-3.2 2.6-5.9 5.9-5.9 3.2 0 5.9 2.7 5.9 5.9z"/>
						</g>
						<g id="&lt;Group&gt;">
							<path id="&lt;Path&gt;" class="s6" d="m1934.3 245.6c0 3.2-2.7 5.8-5.9 5.8-3.3 0-5.9-2.6-5.9-5.8 0-3.3 2.6-5.9 5.9-5.9 3.2 0 5.9 2.6 5.9 5.9z"/>
						</g>
					</g>
					<path id="&lt;Path&gt;" class="s26" d="m1978.8 396c1.2-4.4 1.8-8.9 1.8-13.7 0-28.8-23.4-52.2-52.2-52.2v65.9z"/>
					<path id="&lt;Path&gt;" class="s27" d="m1876.3 386.4c0.3 3.3 0.8 6.5 1.7 9.6h100.8c0.8-3.1 1.3-6.3 1.5-9.6z"/>
					<g id="&lt;Group&gt;">
						<path id="&lt;Path&gt;" class="s6" d="m1996.4 413.9v-18.9h-136v18.9c-7.5 0.1-12.8 1.5-12.8 18.2v108.1c0 5.4 4.8 9.8 11.7 9.8h1.5c-0.2 2.2-1.4 17.2 7.6 25.8h119.9c9-8.6 7.9-23.6 7.6-25.8h1.5c6.9 0 11.7-4.4 11.7-9.8v-108.1c0-16.7-5.3-18.1-12.7-18.2z"/>
					</g>
					<g id="&lt;Group&gt;">
						<path id="&lt;Path&gt;" class="s25" d="m1984.9 575.3h-113.1c0 0-1.6 17.6 4.5 17.6h1.5c-1.1 4.2-1.7 8.6-1.7 13.2 0 28.8 23.3 52.3 52.3 52.3 28.8 0 52.2-23.5 52.2-52.3 0-4.6-0.6-9-1.7-13.2h2.1c6.1 0 3.9-17.6 3.9-17.6z"/>
					</g>
					<g id="&lt;Group&gt;">
						<path id="&lt;Path&gt;" class="s6" d="m1928.4 658c-4.5 0-8.8-0.6-13-1.7-1.5 3.1-3 14.3 0.3 21.9 3.7 8.4 9.5 13.7 12.6 24.7v0.4c0-0.1 0-0.1 0.1-0.2 0 0.1 0 0.1 0 0.2v-0.4c3.1-11 8.8-16.3 12.5-24.7 3.4-7.6 1.9-18.8 0.4-21.9-4.1 1.1-8.4 1.7-12.9 1.7z"/>
					</g>
					<g id="&lt;Group&gt;">
						<g id="&lt;Group&gt;">
							<path id="&lt;Path&gt;" class="s15" d="m1872.7 410.7l-4.5-4.5 4.5-4.6 4.6 4.6z"/>
							<path id="&lt;Path&gt;" class="s15" d="m1894.9 410.7l-4.5-4.5 4.5-4.6 4.6 4.6z"/>
							<path id="&lt;Path&gt;" class="s15" d="m1917.2 410.7l-4.5-4.5 4.5-4.6 4.5 4.6z"/>
							<path id="&lt;Path&gt;" class="s15" d="m1939.4 410.7l-4.5-4.5 4.5-4.6 4.5 4.6z"/>
							<path id="&lt;Path&gt;" class="s15" d="m1961.6 410.7l-4.5-4.5 4.5-4.6 4.6 4.6z"/>
							<path id="&lt;Path&gt;" class="s15" d="m1983.9 410.7l-4.6-4.5 4.6-4.6 4.5 4.6z"/>
						</g>
					</g>
					<g id="&lt;Group&gt;">
						<g id="&lt;Group&gt;">
							<path id="&lt;Path&gt;" class="s15" d="m1872.7 567.2l-4.5-4.5 4.5-4.6 4.6 4.6z"/>
							<path id="&lt;Path&gt;" class="s15" d="m1894.9 567.2l-4.5-4.5 4.5-4.6 4.6 4.6z"/>
							<path id="&lt;Path&gt;" class="s15" d="m1917.2 567.2l-4.5-4.5 4.5-4.6 4.5 4.6z"/>
							<path id="&lt;Path&gt;" class="s15" d="m1939.4 567.2l-4.5-4.5 4.5-4.6 4.5 4.6z"/>
							<path id="&lt;Path&gt;" class="s15" d="m1961.6 567.2l-4.5-4.5 4.5-4.6 4.6 4.6z"/>
							<path id="&lt;Path&gt;" class="s15" d="m1983.9 567.2l-4.6-4.5 4.6-4.6 4.5 4.6z"/>
						</g>
					</g>
					<g id="&lt;Group&gt;">
						<path id="&lt;Path&gt;" class="s15" d="m1887.7 537.8h-14.8-0.2-14.7c0 0 0-69.6 0-74.9 0-5.3 14.9-37.1 14.9-37.1 0 0 14.8 31.8 14.8 37.1 0 5.3 0 74.9 0 74.9z"/>
					</g>
					<g id="&lt;Group&gt;">
						<path id="&lt;Path&gt;" class="s15" d="m1952.7 537.8h-24.2-0.3-24.2c0 0 0-69.6 0-74.9 0-5.3 24.5-37.1 24.5-37.1 0 0 24.2 31.8 24.2 37.1 0 5.3 0 74.9 0 74.9z"/>
					</g>
					<g id="&lt;Group&gt;">
						<path id="&lt;Path&gt;" class="s15" d="m1998.7 537.8h-14.7-0.2-14.7c0 0 0-69.6 0-74.9 0-5.3 14.9-37.1 14.9-37.1 0 0 14.7 31.8 14.7 37.1 0 5.3 0 74.9 0 74.9z"/>
					</g>
					<path id="&lt;Path&gt;" class="s28" d="m1996.4 413.9h-136v-5.3h136z"/>
					<path id="&lt;Path&gt;" class="s28" d="m1995.9 550h-135.1v6.2h135.2z"/>
					<path id="&lt;Path&gt;" class="s28" d="m1928.4 703.3v-0.4c3.1-11 8.8-16.3 12.5-24.7 3.4-7.6 1.9-18.8 0.4-21.9-4.1 1.1-8.4 1.7-12.9 1.7v45.1c0 0.1 0 0.1 0 0.2z"/>
					<path id="&lt;Path&gt;" class="s26" d="m1984.9 575.3h-56.5v83.1c28.8 0 52.2-23.5 52.2-52.3 0-4.6-0.6-9-1.7-13.2h2.1c6.1 0 3.9-17.6 3.9-17.6z"/>
					<path id="&lt;Path&gt;" class="s27" d="m1980.5 603.3c-0.3-3.5-0.8-7-1.6-10.4h-101.1c-0.9 3.4-1.3 6.9-1.5 10.4z"/>
					<path id="&lt;Path&gt;" class="s26" d="m1996.4 413.9v-18.9h-68v180.8h59.9c9-8.6 7.9-23.6 7.6-25.8h1.5c6.9 0 11.7-4.4 11.7-9.8v-108.1c0-16.7-5.3-18.1-12.7-18.2z"/>
				</g>
				<g id="&lt;Group&gt;">
					<g id="&lt;Group&gt;">
						<path id="&lt;Path&gt;" class="s6" d="m986.7 999.5v10.6h-23.8v-10.6c0-4.8 5.5-8.8 12-8.8 6.4 0 11.8 4 11.8 8.8z"/>
					</g>
					<g id="&lt;Group&gt;">
						<path id="&lt;Path&gt;" class="s25" d="m980.4 941.5v29.5c0 3.1-2.5 5.6-5.5 5.6-3.2 0-5.7-2.5-5.7-5.6v-29.5c0-3 2.5-5.6 5.7-5.6 3 0 5.5 2.6 5.5 5.6z"/>
					</g>
					<g id="&lt;Group&gt;">
						<g id="&lt;Group&gt;">
							<path id="&lt;Path&gt;" class="s6" d="m1075.8 817.1c0.1 9.3-7.2 17-16.6 17.2-9.4 0.1-16.9-7.2-17.1-16.4-0.2-9.3 7.2-17 16.4-17.3 9.1-0.4 17.1 7.2 17.3 16.5z"/>
							<path id="&lt;Path&gt;" class="s6" d="m1056.6 846.3c8.4 4.1 11.8 14.2 7.7 22.5-4.2 8.4-14.3 11.8-22.7 7.7-8.2-4.2-11.7-14.3-7.6-22.6 3-5.9 9-9.4 15.2-9.4 2.5 0 5 0.6 7.4 1.8z"/>
							<path id="&lt;Path&gt;" class="s6" d="m1062.3 766.3c4.4 8.2 1.4 18.4-6.8 22.9-3.9 2.2-8.5 2.6-12.8 1.4-4.3-1.3-7.9-4.3-10-8.2-2.2-3.9-2.7-8.5-1.4-12.7 1.2-4.4 4.1-8 8.1-10.2 2.6-1.3 5.3-2 8.1-2 5.9 0 11.7 3.2 14.8 8.8z"/>
							<path id="&lt;Path&gt;" class="s6" d="m1034 885.5c5.6 7.5 4 18.1-3.6 23.6-3.6 2.7-8.1 3.8-12.5 3.2-4.5-0.8-8.3-3.1-11.1-6.8-2.5-3.6-3.7-8.1-3-12.5 0.7-4.5 3-8.3 6.7-11.1 2.9-2.1 6.3-3.2 9.9-3.2 0.8 0 1.7 0 2.6 0.2 4.4 0.6 8.4 3 11 6.6z"/>
							<path id="&lt;Path&gt;" class="s6" d="m1025.8 726.7c7.7 5.1 9.9 15.5 4.8 23.3-2.6 3.7-6.3 6.3-10.7 7.2-4.4 0.9-8.9 0-12.7-2.4-3.8-2.5-6.3-6.3-7.2-10.7-0.3-1.2-0.3-2.3-0.3-3.5 0-3.2 0.9-6.4 2.7-9.2 2.5-3.7 6.3-6.3 10.8-7.2 1-0.2 2.2-0.3 3.3-0.3 3.3 0 6.5 0.9 9.3 2.8z"/>
							<path id="&lt;Path&gt;" class="s6" d="m976.6 892.1c9.2 0.9 16 9.2 14.9 18.5-0.9 9.2-9.2 15.9-18.4 14.9-4.5-0.4-8.6-2.6-11.4-6.2-2.5-2.9-3.7-6.6-3.7-10.5 0-0.6 0-1.1 0.1-1.8 0.4-4.5 2.6-8.5 6.1-11.3 3-2.4 6.8-3.7 10.6-3.7 0.6 0 1.2 0 1.8 0.1z"/>
							<path id="&lt;Path&gt;" class="s6" d="m976.3 708.9c9.2 0.9 15.9 9.3 14.9 18.6-0.5 4.4-2.6 8.4-6.1 11.3-3.5 2.8-7.9 4.1-12.4 3.6-4.5-0.5-8.5-2.6-11.3-6.1-2.3-3-3.7-6.7-3.7-10.5 0-0.6 0-1.3 0.1-1.9 0.9-8.6 8.2-15.1 16.7-15.1 0.5 0 1.2 0.1 1.8 0.1z"/>
							<path id="&lt;Path&gt;" class="s6" d="m942.1 879.6c7.8 5.2 9.9 15.7 4.8 23.4-5.1 7.8-15.6 10-23.4 4.8-7.7-5.1-9.8-15.6-4.7-23.3 2.4-3.8 6.2-6.4 10.6-7.3 1.2-0.2 2.3-0.3 3.5-0.3 3.2 0 6.4 0.9 9.2 2.7z"/>
							<path id="&lt;Path&gt;" class="s6" d="m942.4 728.9c5.6 7.5 4 18.1-3.6 23.6-7.5 5.5-18.1 3.9-23.6-3.6-2.6-3.6-3.7-8.1-3-12.5 0.7-4.5 3-8.4 6.7-11.1 2.9-2.2 6.3-3.2 10-3.2 0.7 0 1.7 0 2.6 0.2 4.4 0.6 8.3 3 10.9 6.6z"/>
							<path id="&lt;Path&gt;" class="s6" d="m916.7 852.1c2.1 3.9 2.6 8.4 1.3 12.7-1.2 4.4-4.1 7.9-8 10.1-4 2.1-8.6 2.6-12.9 1.3-4.3-1.2-7.9-4.1-10-8.1-4.5-8.1-1.5-18.4 6.7-22.8 8.2-4.5 18.4-1.4 22.9 6.8z"/>
							<path id="&lt;Path&gt;" class="s6" d="m916.2 767.7c1.4 4.2 1 8.8-1 12.9-1.9 4-5.4 7-9.6 8.4-4.3 1.5-8.8 1.2-12.9-0.9-4-2-7.1-5.3-8.5-9.6-1.5-4.3-1.1-8.8 0.9-12.9 2-4.1 5.4-7 9.7-8.5 1.8-0.6 3.6-0.9 5.4-0.9 2.6 0 5.1 0.6 7.4 1.7 4.1 2.1 7.1 5.5 8.6 9.8z"/>
							<path id="&lt;Path&gt;" class="s6" d="m907.3 816.6c0.1 9.3-7.2 17-16.6 17.2-9.1 0.3-16.9-7.2-17.1-16.4-0.2-9.4 7.2-17.1 16.4-17.3q0.3 0 0.4 0c9.1 0 16.7 7.4 16.9 16.5z"/>
						</g>
					</g>
					<g id="&lt;Group&gt;">
						<path id="&lt;Path&gt;" class="s25" d="m989.8 1049.9c-1 0-1.9-0.8-1.9-1.8v-26.4c0 0 3.6 0 3.7 0l0.1 26.4c0 1-0.9 1.8-1.9 1.8z"/>
					</g>
					<g id="&lt;Group&gt;">
						<path id="&lt;Path&gt;" class="s25" d="m979.8 1049.9c-1 0-1.9-0.8-1.9-1.8v-26.4h4l-0.2 26.4c0 1-0.8 1.8-1.9 1.8z"/>
					</g>
					<g id="&lt;Group&gt;">
						<path id="&lt;Path&gt;" class="s25" d="m969.8 1049.9c-1 0-1.9-0.8-1.9-1.8v-26.4h4l-0.2 26.4c0 1-0.8 1.8-1.9 1.8z"/>
					</g>
					<g id="&lt;Group&gt;">
						<path id="&lt;Path&gt;" class="s25" d="m959.9 1049.9c-1.1 0-1.9-0.8-1.9-1.8v-26.4c0.1 0 3.9 0 3.9 0l-0.2 26.4c0 1-0.9 1.8-1.8 1.8z"/>
					</g>
					<g id="&lt;Group&gt;">
						<path id="&lt;Path&gt;" class="s29" d="m1024.9 730.5c2 1.4 2.5 4.1 1.2 6.1-0.6 1-1.6 1.7-2.8 1.9-1.1 0.3-2.3 0-3.3-0.6-1-0.7-1.7-1.6-1.9-2.8q-0.1-0.5-0.1-0.9c0-0.9 0.2-1.7 0.7-2.4 0.7-1 1.7-1.7 2.9-1.9q0.4-0.1 0.8-0.1c0.9 0 1.7 0.2 2.5 0.7z"/>
						<path id="&lt;Path&gt;" class="s29" d="m982.4 714.3c2 1.4 2.6 4.1 1.3 6.2-0.7 0.9-1.7 1.6-2.8 1.8-1.2 0.3-2.4 0-3.3-0.6-1.1-0.7-1.7-1.6-1.9-2.8q-0.1-0.5-0.1-0.9c0-0.9 0.2-1.7 0.7-2.4 0.6-1 1.6-1.7 2.8-1.9q0.4-0.1 0.9-0.1c0.9 0 1.7 0.2 2.4 0.7z"/>
						<path id="&lt;Path&gt;" class="s29" d="m936.8 729.1c2 1.4 2.6 4.1 1.3 6.2-0.7 0.9-1.7 1.6-2.8 1.8-1.2 0.3-2.4 0-3.3-0.6-1-0.7-1.7-1.6-1.9-2.8q-0.1-0.5-0.1-0.9c0-0.9 0.2-1.7 0.7-2.4 0.6-1 1.6-1.7 2.8-1.9 0.3-0.1 0.6-0.1 0.9-0.1 0.9 0 1.7 0.2 2.4 0.7z"/>
						<path id="&lt;Path&gt;" class="s29" d="m908.1 762.3c2.1 1.3 2.6 4.1 1.3 6.1-0.7 1-1.7 1.7-2.8 1.9-1.2 0.2-2.3 0-3.3-0.6-1-0.7-1.7-1.7-1.9-2.8q-0.1-0.5-0.1-0.9c0-0.9 0.2-1.7 0.7-2.4 0.6-1 1.7-1.7 2.8-1.9q0.4-0.1 0.9-0.1c0.9 0 1.7 0.2 2.4 0.7z"/>
						<path id="&lt;Path&gt;" class="s29" d="m896.8 805.5c2 1.3 2.6 4 1.3 6.1-0.7 1-1.7 1.6-2.8 1.9-1.2 0.2-2.3 0-3.3-0.7-1-0.6-1.7-1.6-1.9-2.8q-0.1-0.4-0.1-0.9c0-0.8 0.2-1.7 0.7-2.4 0.6-1 1.6-1.6 2.8-1.9q0.4-0.1 0.9-0.1c0.9 0 1.7 0.3 2.4 0.8z"/>
						<path id="&lt;Path&gt;" class="s29" d="m909.5 848.9c2 1.3 2.5 4.1 1.2 6.1-0.6 1-1.6 1.7-2.8 1.9-1.1 0.2-2.3 0-3.3-0.6-1-0.7-1.7-1.7-1.9-2.8q-0.1-0.5-0.1-0.9c0-0.9 0.2-1.7 0.7-2.4 0.7-1.1 1.7-1.7 2.9-1.9q0.4-0.1 0.8-0.1c0.9 0 1.7 0.2 2.5 0.7z"/>
						<path id="&lt;Path&gt;" class="s29" d="m939.9 883.6c2 1.4 2.5 4.1 1.2 6.2-0.6 0.9-1.6 1.6-2.8 1.8-1.1 0.3-2.3 0-3.3-0.6-1-0.7-1.7-1.6-1.9-2.8q-0.1-0.5-0.1-0.9c0-0.9 0.2-1.7 0.7-2.4 0.7-1 1.7-1.7 2.8-1.9q0.5-0.1 0.9-0.1c0.9 0 1.7 0.2 2.5 0.7z"/>
						<path id="&lt;Path&gt;" class="s29" d="m982.5 898.6c2 1.4 2.6 4.1 1.2 6.2-0.6 0.9-1.6 1.6-2.8 1.8-1.1 0.3-2.3 0-3.3-0.6-1-0.7-1.6-1.6-1.9-2.8q-0.1-0.5-0.1-0.9c0-0.9 0.3-1.7 0.8-2.4 0.6-1 1.6-1.7 2.8-1.9q0.4-0.1 0.9-0.1c0.8 0 1.7 0.2 2.4 0.7z"/>
						<path id="&lt;Path&gt;" class="s29" d="m1027.1 884.8c2 1.4 2.6 4.1 1.3 6.1-0.7 1-1.7 1.7-2.8 1.9-1.2 0.3-2.4 0-3.4-0.6-1-0.7-1.6-1.7-1.9-2.8q-0.1-0.5 0-0.9c0-0.9 0.2-1.7 0.7-2.4 0.6-1 1.6-1.7 2.8-1.9q0.4-0.1 0.9-0.1c0.8 0 1.7 0.2 2.4 0.7z"/>
						<path id="&lt;Path&gt;" class="s29" d="m1056.7 851.3c2 1.3 2.6 4 1.3 6.1-0.7 0.9-1.7 1.6-2.8 1.9-1.2 0.2-2.4 0-3.4-0.7-1-0.6-1.6-1.6-1.8-2.8q-0.1-0.4-0.1-0.9c0-0.8 0.2-1.7 0.7-2.4 0.6-1 1.6-1.6 2.8-1.9q0.4-0.1 0.9-0.1c0.8 0 1.7 0.3 2.4 0.8z"/>
						<path id="&lt;Path&gt;" class="s29" d="m1067.4 807.8c2 1.4 2.6 4.1 1.2 6.2-0.6 0.9-1.6 1.6-2.8 1.8-1.1 0.3-2.3 0-3.3-0.6-1-0.7-1.7-1.6-1.9-2.8q-0.1-0.5-0.1-0.9c0-0.9 0.3-1.7 0.7-2.4 0.7-1 1.7-1.7 2.9-1.9q0.4-0.1 0.8-0.1c0.9 0 1.8 0.2 2.5 0.7z"/>
						<path id="&lt;Path&gt;" class="s29" d="m1056.7 765.6c2 1.3 2.6 4.1 1.3 6.1-0.7 1-1.7 1.7-2.8 1.9-1.2 0.2-2.4 0-3.4-0.6-1-0.7-1.6-1.7-1.8-2.8q-0.1-0.5-0.1-1c0-0.8 0.2-1.6 0.7-2.4 0.6-1 1.6-1.6 2.8-1.8q0.4-0.1 0.9-0.1c0.8 0 1.7 0.2 2.4 0.7z"/>
					</g>
				</g>
				<g id="&lt;Group&gt;">
					<g id="&lt;Group&gt;">
						<g id="&lt;Group&gt;">
							<path id="&lt;Path&gt;" class="s6" d="m508.8 207.9h-8.7v-48.4h8.7z"/>
						</g>
						<g id="&lt;Group&gt;">
							<path id="&lt;Path&gt;" class="s25" d="m504.6 590.8c-10.8-4.8-56.5-29-60.2-75.8h120.1c-3.7 48.4-48.7 71-59.9 75.8z"/>
						</g>
						<g id="&lt;Group&gt;">
							<path id="&lt;Path&gt;" class="s25" d="m587.5 292.3h-166.2c4.2-68.4 69.9-100.7 83.3-106.7 13.1 6 78.8 39.4 82.9 106.7z"/>
						</g>
						<g id="&lt;Group&gt;">
							<path id="&lt;Path&gt;" class="s6" d="m590.5 486.1h-6.4v-166.8h6.4c8.2 0 14.5-6.4 14.5-14.3 0-7.9-6.3-14.5-14.5-14.5h-172c-8.3 0-14.6 6.6-14.6 14.5 0 7.9 6.3 14.3 14.6 14.3h6.2v166.8h-6.2c-8.3 0-14.6 6.3-14.6 14.5 0 7.8 6.3 14.6 14.6 14.6h172c8.2 0 14.5-6.8 14.5-14.6 0-8.2-6.3-14.5-14.5-14.5z"/>
						</g>
						<g id="&lt;Group&gt;">
							<path id="&lt;Path&gt;" class="s15" d="m432.6 486.1v-140.2c6.8 9.9 14.8 32.6 14.8 44.5v95.7z"/>
						</g>
						<g id="&lt;Group&gt;">
							<path id="&lt;Path&gt;" class="s15" d="m469.7 486.1v-95.7c0-20.2 27.5-45.8 30.6-48.7 2.5-2.1 6.1-2.1 8.4 0 3.4 2.9 30.5 28.5 30.5 48.7v95.7z"/>
						</g>
						<g id="&lt;Group&gt;">
							<path id="&lt;Path&gt;" class="s15" d="m561.6 486.1v-95.7c0-11.5 7.4-33.7 14-43.5v139.2z"/>
						</g>
						<g id="&lt;Group&gt;">
							<g id="&lt;Group&gt;">
								<path id="&lt;Compound Path&gt;" fill-rule="evenodd" class="s25" d="m504.4 127.6c10.8 0 19.5 8.7 19.5 19.4 0 10.7-8.7 19.5-19.5 19.5-10.6 0-19.3-8.8-19.3-19.5 0-10.7 8.7-19.4 19.3-19.4zm0 30.7c6.3 0 11.3-5.1 11.3-11.3 0-6.1-5-11.2-11.3-11.2-6.1 0-11.2 5.1-11.2 11.2 0 6.2 5.1 11.3 11.2 11.3z"/>
							</g>
						</g>
						<path id="&lt;Path&gt;" class="s28" d="m584.1 319.3h-159.4v12.9h159.4z"/>
						<path id="&lt;Path&gt;" class="s26" d="m564.5 515h-59.9v75.8c11.2-4.8 56.2-27.4 59.9-75.8z"/>
						<path id="&lt;Path&gt;" class="s26" d="m587.5 292.3c-4.1-67.3-69.8-100.7-82.9-106.7v106.7z"/>
					</g>
					<path id="&lt;Path&gt;" class="s26" d="m605 500.6c0-8.2-6.3-14.5-14.5-14.5h-6.4v-166.8h6.4c8.2 0 14.5-6.4 14.5-14.3 0-7.9-6.3-14.5-14.5-14.5h-85.9v224.7h85.9c8.2 0 14.5-6.8 14.5-14.6z"/>
					<g id="&lt;Group&gt;">
						<path id="&lt;Path&gt;" class="s6" d="m504.6 138.1c-1.6 0-3-1.4-3-3v-81.4c0-1.6 1.4-2.9 3-2.9 1.7 0 3 1.3 3 2.9v81.4c0 1.6-1.3 3-3 3z"/>
					</g>
				</g>
				<g id="&lt;Group&gt;">
					<path id="&lt;Path&gt;" class="s2" d="m221.3 774.9h-11.1l-3 3v11c0 3.5-2.8 6.3-6.2 6.3-3.4 0-6.2-2.8-6.2-6.3v-11l-2.9-3h-11.1c-3.5 0-6.3-2.8-6.3-6.2 0-3.4 2.8-6.2 6.3-6.2h11.1l2.9-3.1v-11c0-3.4 2.8-6.2 6.2-6.2 3.4 0 6.2 2.8 6.2 6.2v11l3 3.1h11.1c3.4 0 6.1 2.8 6.1 6.2 0 3.4-2.7 6.2-6.1 6.2z"/>
				</g>
				<g id="&lt;Group&gt;">
					<path id="&lt;Path&gt;" class="s2" d="m1353.2 165.2h-11.1l-3 3v11.1c0 3.4-2.8 6.2-6.2 6.2-3.4 0-6.2-2.8-6.2-6.2v-11.1l-2.9-3h-11.1c-3.5 0-6.3-2.8-6.3-6.2 0-3.4 2.8-6.2 6.3-6.2h11.1l2.9-3v-11c0-3.5 2.8-6.3 6.2-6.3 3.4 0 6.2 2.8 6.2 6.3v11l3 3h11.1c3.4 0 6.1 2.8 6.1 6.2 0 3.4-2.7 6.2-6.1 6.2z"/>
				</g>
				<g id="&lt;Group&gt;">
					<g id="&lt;Group&gt;">
						<path id="&lt;Compound Path&gt;" fill-rule="evenodd" class="s2" d="m1740.7 224.8c15.3 0 27.7 12.5 27.7 27.7 0 15.2-12.4 27.7-27.7 27.7-15.2 0-27.6-12.5-27.6-27.7 0-15.2 12.4-27.7 27.6-27.7zm0 44.1c9.1 0 16.5-7.3 16.5-16.4 0-9.1-7.4-16.4-16.5-16.4-9 0-16.4 7.3-16.4 16.4 0 9.1 7.4 16.4 16.4 16.4z"/>
					</g>
				</g>
				<g id="&lt;Group&gt;">
					<g id="&lt;Group&gt;">
						<g id="&lt;Group&gt;">
							<path id="&lt;Path&gt;" class="s2" d="m2148.2 679c-3.6 0-6.6 2.9-6.6 6.5 0 3.7 3 6.6 6.6 6.6h65.6c3.6 0 6.5-2.9 6.5-6.6 0-3.6-2.9-6.5-6.5-6.5z"/>
						</g>
						<g id="&lt;Group&gt;">
							<path id="&lt;Path&gt;" class="s2" d="m2241.9 679c-3.6 0-6.6 2.9-6.6 6.5 0 3.7 3 6.6 6.6 6.6h12c3.6 0 6.5-2.9 6.5-6.6 0-3.6-2.9-6.5-6.5-6.5z"/>
						</g>
					</g>
				</g>
				<g id="&lt;Group&gt;">
					<g id="&lt;Group&gt;">
						<g id="&lt;Group&gt;">
							<path id="&lt;Path&gt;" class="s2" d="m1043.7 595.6c-3.7 0-6.6 2.9-6.6 6.6 0 3.6 2.9 6.5 6.6 6.5h65.5c3.7 0 6.6-2.9 6.6-6.5 0-3.7-2.9-6.6-6.6-6.6z"/>
						</g>
						<g id="&lt;Group&gt;">
							<path id="&lt;Path&gt;" class="s2" d="m1137.3 595.6c-3.6 0-6.5 2.9-6.5 6.6 0 3.6 2.9 6.5 6.5 6.5h12.1c3.6 0 6.5-2.9 6.5-6.5 0-3.7-2.9-6.6-6.5-6.6z"/>
						</g>
					</g>
				</g>
				<g id="&lt;Group&gt;">
					<g id="&lt;Group&gt;">
						<path id="&lt;Path&gt;" class="s2" d="m251.1 1023.4c-3.6 0-6.5 2.9-6.5 6.6 0 3.6 2.9 6.5 6.5 6.5h65.6c3.6 0 6.6-2.9 6.6-6.5 0-3.7-3-6.6-6.6-6.6z"/>
					</g>
					<g id="&lt;Group&gt;">
						<path id="&lt;Path&gt;" class="s2" d="m344.8 1023.4c-3.6 0-6.6 2.9-6.6 6.6 0 3.6 3 6.5 6.6 6.5h12c3.7 0 6.6-2.9 6.6-6.5 0-3.7-2.9-6.6-6.6-6.6z"/>
					</g>
				</g>
				<g id="&lt;Group&gt;">
					<g id="&lt;Group&gt;">
						<path id="&lt;Path&gt;" class="s4" d="m367.4 1290.1l27.6-0.7c13.4-18.7 25-42.2 31.5-71.5l-21.6-1.5 23.5-8.2c2.3-13.4 3.8-27.7 3.7-43.6 0 0-38.5 3.2-77.9 23.5l-1.9 18.4-3.7-15.4c-23.7 13.2-46.8 33-61.6 62.2l7 29.7-12.1-18.9c-4.9 12.1-8.5 25.6-10.1 40.9-1.1 29.4 0 47.2 0 47.2h45c0 0 39.5-14.5 72.2-55.2z"/>
					</g>
					<g id="&lt;Group&gt;">
						<path id="&lt;Path&gt;" class="s2" d="m280.6 1318.7c-1.8-17.3-7.1-31.6-14.3-43.4l-6.6 13.9 2.2-20.3c-13.9-19-33-31-50.6-38.3l-1.3 12.5-3.4-14.3c-21.7-8.2-39.8-9.7-39.8-9.7-0.1 22.1 3.7 40.7 9.5 56.4l11.5 3.7-9.7 0.9c9 21.9 22.1 37.9 34.6 49.1l22.6 1.2-14.7 5.4c15.4 11.7 28 16.4 28 16.4h32c0 0 0.8-12.7 0-33.5z"/>
					</g>
					<g id="&lt;Group&gt;">
						<path id="&lt;Path&gt;" class="s3" d="m200.5 1253.1c-7-6.6-21.7-22.2-21.7-22.2 0 0 17.4 11.5 24.3 18.1 58.3 55.1 70.4 100.5 71 102.5l-2.3 0.7h-2.5c-1.6-5.6-15.6-48.4-68.8-99.1z"/>
					</g>
					<g id="&lt;Group&gt;">
						<path id="&lt;Path&gt;" class="s2" d="m288.2 1352.2h-5.1c4.3-14.8 31.2-95.3 113.3-160.3 6.9-5.5 23.1-14.2 23.1-14.2 0 0-12.7 12.2-19.3 17.4-79.2 62.5-106.6 139.5-112 157.1z"/>
					</g>
					<path id="&lt;Path&gt;" class="s26" d="m333.5 1503h-103.9l-30.8-121.1h165.4z"/>
					<g id="&lt;Group&gt;">
						<path id="&lt;Path&gt;" class="s30" d="m377.6 1395.3h-192.2v-46.1h192.2z"/>
					</g>
				</g>
			</g>
		</g>
	</g>
</svg>